# AST/ASF file generated using VICON BodyLanguage
# -----------------------------------------------
:version 1.10
:name VICON
:units
  mass 1.0
  length 0.45
  angle deg
:documentation
   .ast/.asf automatically generated from VICON data using
   VICON BodyBuilder and BodyLanguage model FoxedUp or BRILLIANT.MOD
:root
   order TX TY TZ RX RY RZ
   axis XYZ
   position 0 0 0  
   orientation 0 0 0 
:bonedata
  begin
     id 1 
     name lhipjoint
     direction 0.682418 -0.694059 0.22932 
     length 2.25561 
     axis 0 0 0  XYZ
  end
  begin
     id 2 
     name lfemur
     direction 0.34202 -0.939693 0  
     length 6.96448  
     axis 0 0 20  XYZ
    dof rx ry rz
    limits (-160.0 20.0)
           (-70.0 70.0)
           (-60.0 70.0)
  end
  begin
     id 3 
     name ltibia
     direction 0.34202 -0.939693 0   
     length 6.88553   
     axis 0 0 20   XYZ
    dof rx
    limits (-10.0 170.0)
  end
  begin
     id 4 
     name lfoot
     direction 0.0723587 -0.198804 0.977364   
     length 1.88518   
     axis -90 7.62852e-016 20   XYZ
    dof rx rz
    limits (-45.0 90.0)
           (-70.0 20.0)
  end
  begin
     id 5 
     name ltoes
     direction 1.53558e-011 -4.21962e-011 1   
     length 0.952124   
     axis -90 7.62852e-016 20   XYZ
    dof rx
    limits (-90.0 20.0)
  end
  begin
     id 6 
     name rhipjoint
     direction -0.657603 -0.71533 0.236348   
     length 2.18854  
     axis 0 0 0  XYZ 
  end
  begin
     id 7 
     name rfemur
     direction -0.34202 -0.939693 0   
     length 6.86686   
     axis 0 0 -20   XYZ
    dof rx ry rz
    limits (-160.0 20.0)
           (-70.0 70.0)
           (-70.0 60.0)
  end
  begin
     id 8 
     name rtibia
     direction -0.34202 -0.939693 0   
     length 6.59503   
     axis 0 0 -20   XYZ
    dof rx
    limits (-10.0 170.0)
 end
 begin
     id 9 
     name rfoot
     direction -0.101977 -0.280179 0.954516   
     length 1.93723  
     axis -90 -7.62852e-016 -20   XYZ
    dof rx rz
    limits (-45.0 90.0)
           (-20.0 70.0)
  end
  begin
     id 10 
     name rtoes
     direction -1.53564e-011 -4.21897e-011 1   
     length 0.970315   
     axis -90 -7.62852e-016 -20   XYZ
    dof rx
    limits (-90.0 20.0)
  end
  begin
     id 11 
     name lowerback
     direction -0.0339559 0.999421 -0.00235966   
     length 1.88543   
     axis 0 0 0   XYZ
    dof rx ry rz
    limits (-20.0 45.0)
           (-30.0 30.0)
           (-30.0 30.0)
  end
  begin
     id 12 
     name upperback
     direction 0.00401003 0.999739 0.0224689   
     length 1.8856   
     axis 0 0 0   XYZ
    dof rx ry rz
    limits (-20.0 45.0)
           (-30.0 30.0)
           (-30.0 30.0)
  end
  begin
     id 13 
     name thorax
     direction 0.0198619 0.999546 0.0226536   
     length 1.88352   
     axis 0 0 0   XYZ
    dof rx ry rz
    limits (-20.0 45.0)
           (-30.0 30.0)
           (-30.0 30.0)
  end
  begin
     id 14 
     name lowerneck
     direction -0.0461848 0.998632 0.0245198   
     length 1.34895   
     axis 0 0 0   XYZ
    dof rx ry rz
    limits (-20.0 45.0)
           (-30.0 30.0)
           (-30.0 30.0)
  end
  begin
     id 15 
     name upperneck
     direction -0.0180627 0.994724 -0.100984   
     length 1.35214   
     axis 0 0 0   XYZ
    dof rx ry rz
    limits (-20.0 45.0)
           (-30.0 30.0)
           (-30.0 30.0)
  end
  begin
     id 16
     name head
     direction -0.00374772 0.999293 -0.037403  
     length 1.3568  
     axis 0 0 0   XYZ
    dof rx ry rz
    limits (-20.0 45.0)
           (-30.0 30.0)
           (-30.0 30.0)
  end
  begin
     id 17 
     name lclavicle
     direction 0.971773 0.191119 0.138311  
     length 2.84954  
     axis 0 0 0   XYZ
    dof ry rz
    limits (-20.0 10.0)
           (0.0 20.0)
  end
  begin
     id 18 
     name lhumerus
     direction 1 -4.4897e-011 -2.43761e-027   
     length 4.40919   
     axis 180 -30 -90   XYZ
    dof rx ry rz
    limits (-60.0 90.0)
           (-90.0 90.0)
           (-90.0 90.0)
  end
  begin
     id 19
     name lradius
     direction 1 -4.4896e-011 -9.1621e-027   
     length 3.03857   
     axis 180 -30 -90   XYZ
    dof rx
    limits (-10.0 170.0)
  end
  begin
     id 20
     name lwrist
     direction 1 -4.4896e-011 -1.41363e-026   
     length 1.51928   
     axis 1.07133e-014 90 90   XYZ
    dof ry
    limits (-180.0 0.0)
 end
  begin
     id 21 
     name lhand
     direction 1 -4.48978e-011 -2.82725e-026   
     length 0.523208   
     axis 1.80403e-014 90 90   XYZ
    dof rx rz
    limits (-90.0 90.0)
           (-45.0 45.0)
  end
  begin
     id 22 
     name lfingers
     direction 1 -4.48977e-011 -5.6545e-026   
     length 0.421824   
     axis 3.60806e-014 90 90   XYZ
    dof rx
    limits (0.0 90.0)
  end
  begin
     id 23
     name lthumb
     direction 0.707107 -6.34962e-011 0.707107   
     length 0.605657   
     axis -90 45 2.85299e-015   XYZ
    dof rx rz
    limits (-45.0 45.0)
           (-45.0 45.0)
  end
  begin
     id 24 
     name rclavicle
     direction -0.957247 0.24311 0.156766   
     length 3.12406  
     axis 0 0 0   XYZ 
    dof ry rz
    limits (-10.0 20.0)
           (-20.0 0.0)
  end
  begin
     id 25 
     name rhumerus
     direction -1 -4.48964e-011 -1.70632e-027  
     length 4.61969   
     axis 180 30 90   XYZ
    dof rx ry rz
    limits (-90.0 60.0)
           (-90.0 90.0)
           (-90.0 90.0)
  end
  begin
     id 26 
     name rradius
     direction -1 -4.48966e-011 -6.60395e-027   
     length 3.09382   
     axis 180 30 90   XYZ
    dof rx
    limits (-10.0 170.0)
  end
  begin
     id 27 
     name rwrist
     direction -1 -4.48963e-011 -1.41363e-026   
     length 1.54691   
     axis 1.07133e-014 -90 -90   XYZ
    dof ry
    limits (-180.0 0.0)
  end
  begin
     id 28
     name rhand
     direction -1 -4.49013e-011 -2.82725e-026   
     length 0.500896   
     axis 1.80403e-014 -90 -90   XYZ
    dof rx rz
    limits (-90.0 90.0)
           (-45.0 45.0)
  end
  begin
     id 29
     name rfingers
     direction -1 -4.48902e-011 -5.6545e-026   
     length 0.403835   
     axis 3.60806e-014 -90 -90   XYZ
    dof rx
    limits (0.0 90.0)
  end
  begin
     id 30
     name rthumb
     direction -0.707107 -6.34953e-011 0.707107   
     length 0.579829   
     axis -90 -45 -2.85299e-015   XYZ
    dof rx rz
    limits (-45.0 45.0)
           (-45.0 45.0)
  end
:hierarchy
  begin
    root lhipjoint rhipjoint lowerback
    lhipjoint lfemur
    lfemur ltibia
    ltibia lfoot
    lfoot ltoes
    rhipjoint rfemur
    rfemur rtibia
    rtibia rfoot
    rfoot rtoes
    lowerback upperback
    upperback thorax
    thorax lowerneck lclavicle rclavicle
    lowerneck upperneck
    upperneck head
    lclavicle lhumerus
    lhumerus lradius
    lradius lwrist
    lwrist lhand lthumb
    lhand lfingers
    rclavicle rhumerus
    rhumerus rradius
    rradius rwrist
    rwrist rhand rthumb
    rhand rfingers
  end

#!OML:ASF E:\madness\Project 1\Capture day 1\Session 1\Female1.ASF
:FULLY-SPECIFIED
:DEGREES
982
root 7.25887 16.4222 -1.70628 204.901 -81.3331 -198.913
lowerback -7.0586 0.810659 -3.95066
upperback -5.7486 1.06566 0.178614
thorax -2.07603 0.573102 2.45589
lowerneck 7.15614 12.0524 6.68696
upperneck -0.182876 16.4745 -6.42026
head -0.113459 8.33442 -3.40326
rclavicle 8.00108e-015 2.18663e-015
rhumerus -49.976 -0.549944 -87.7593
rradius 60.7222
rwrist -20.7128
rhand -13.0091 -56.3717
rfingers 7.12502
rthumb 13.0844 -85.9413
lclavicle 8.00108e-015 2.18663e-015
lhumerus -53.3995 -0.873385 88.5144
lradius 73.4423
lwrist 32.9432
lhand -38.9424 21.1264
lfingers 7.12502
lthumb -11.9481 50.7654
rfemur 0.711129 10.3294 20.4812
rtibia 2.04796
rfoot -9.91847 -15.0238
rtoes 24.4115
lfemur -7.1796 -11.6751 -15.5021
ltibia 16.6259
lfoot -5.09963 28.4921
ltoes 12.4436
983
root 7.26482 16.4117 -1.70236 205.458 -81.5356 -199.412
lowerback -7.02353 0.747912 -3.92511
upperback -5.78289 0.977673 0.179321
thorax -2.12421 0.529232 2.43727
lowerneck 7.00528 12.1537 6.5033
upperneck -0.0991809 16.591 -6.2907
head -0.0798188 8.38865 -3.31449
rclavicle -4.27387e-015 6.16232e-015
rhumerus -49.9623 -0.557851 -87.7111
rradius 60.1631
rwrist -20.5996
rhand -16.1344 -53.759
rfingers 7.12502
rthumb 10.0705 -83.4981
lclavicle -4.27387e-015 6.16232e-015
lhumerus -53.4116 -0.795821 88.469
lradius 72.8806
lwrist 32.218
lhand -39.4392 20.4396
lfingers 7.12502
lthumb -12.4272 50.0502
rfemur 0.411254 10.1308 20.5455
rtibia 2.31644
rfoot -9.39769 -15.3451
rtoes 21.4245
lfemur -7.33899 -11.6416 -15.4709
ltibia 16.6826
lfoot -4.96118 28.2755
ltoes 11.8003
984
root 7.26795 16.4204 -1.70037 206.015 -81.6967 -199.896
lowerback -6.99313 0.691575 -3.93985
upperback -5.83701 0.899091 0.210288
thorax -2.19298 0.492169 2.47304
lowerneck 6.94049 12.2556 6.37684
upperneck 0.0329018 16.7173 -6.21314
head -0.0351978 8.44974 -3.25615
rclavicle -1.9133e-014 -1.19271e-015
rhumerus -49.9266 -0.507428 -87.6327
rradius 59.5309
rwrist -20.3754
rhand -16.1556 -53.8392
rfingers 7.12502
rthumb 10.05 -83.5793
lclavicle -1.9133e-014 -1.19271e-015
lhumerus -53.415 -0.675285 88.4783
lradius 72.284
lwrist 31.4906
lhand -39.5687 20.4946
lfingers 7.12502
lthumb -12.552 50.0976
rfemur 0.185225 9.96108 20.4888
rtibia 2.9158
rfoot -10.3566 -14.9855
rtoes 24.768
lfemur -7.42799 -11.6493 -15.4496
ltibia 16.5792
lfoot -4.79099 28.1265
ltoes 11.511
985
root 7.27135 16.4147 -1.69591 206.44 -81.8722 -200.243
lowerback -7.02239 0.645295 -3.9494
upperback -5.86585 0.837841 0.264441
thorax -2.20376 0.46294 2.53176
lowerneck 6.99149 12.2889 6.30923
upperneck 0.0274567 16.7574 -6.26811
head -0.0435177 8.47099 -3.26689
rclavicle 6.60959e-015 -3.97569e-016
rhumerus -49.9061 -0.474205 -87.5027
rradius 59.0373
rwrist -20.0158
rhand -12.5118 -57.0598
rfingers 7.12502
rthumb 13.5637 -86.598
lclavicle 6.60959e-015 -3.97569e-016
lhumerus -53.3957 -0.559552 88.5275
lradius 71.7019
lwrist 30.8769
lhand -38.6905 19.3767
lfingers 7.12502
lthumb -11.7052 49.0297
rfemur -0.0427647 9.79286 20.5519
rtibia 3.02451
rfoot -9.91912 -15.2807
rtoes 21.9646
lfemur -7.59858 -11.7773 -15.392
ltibia 16.5826
lfoot -4.77276 28.0862
ltoes 11.5332
986
root 7.27157 16.4235 -1.69157 206.597 -82.0305 -200.406
lowerback -7.0408 0.65757 -3.87204
upperback -5.84676 0.852991 0.264291
thorax -2.17275 0.467689 2.48925
lowerneck 7.25424 12.2264 6.427
upperneck -0.207325 16.6868 -6.47502
head -0.139847 8.44217 -3.3857
rclavicle -1.41634e-014 -1.15295e-014
rhumerus -49.9302 -0.62477 -87.3744
rradius 58.662
rwrist -19.6904
rhand -15.566 -54.5678
rfingers 7.12502
rthumb 10.6189 -84.2795
lclavicle -1.41634e-014 -1.15295e-014
lhumerus -53.336 -0.587107 88.5705
lradius 71.0762
lwrist 30.416
lhand -38.1479 18.2323
lfingers 7.12502
lthumb -11.1819 47.9144
rfemur -0.135766 9.64325 20.5495
rtibia 3.38749
rfoot -10.5919 -15.0054
rtoes 24.1326
lfemur -7.55669 -11.9195 -15.3562
ltibia 16.4439
lfoot -4.77581 28.0629
ltoes 11.7848
987
root 7.26928 16.4239 -1.68744 207.081 -82.0817 -200.889
lowerback -7.11733 0.684631 -3.90065
upperback -5.82455 0.894369 0.247405
thorax -2.1106 0.487658 2.49099
lowerneck 7.49627 12.2082 6.51073
upperneck -0.406581 16.6734 -6.59829
head -0.228144 8.44058 -3.46868
rclavicle 1.72943e-014 1.21259e-014
rhumerus -49.9539 -0.782774 -87.2492
rradius 58.331
rwrist -19.4439
rhand -16.752 -53.8156
rfingers 7.12502
rthumb 9.47465 -83.5826
lclavicle 1.72943e-014 1.21259e-014
lhumerus -53.3343 -0.623551 88.5811
lradius 70.5293
lwrist 30.1383
lhand -38.6275 17.8868
lfingers 7.12502
lthumb -11.6444 47.5432
rfemur 0.0666367 9.55375 20.4695
rtibia 2.9943
rfoot -10.4012 -15.0239
rtoes 24.0411
lfemur -7.55648 -11.9718 -15.4298
ltibia 16.4756
lfoot -4.83746 28.0374
ltoes 12.2186
988
root 7.26805 16.4239 -1.68495 207.821 -82.1245 -201.538
lowerback -7.3027 0.689022 -3.98493
upperback -5.78853 0.912973 0.23914
thorax -1.97388 0.496167 2.5335
lowerneck 7.33094 12.269 6.34122
upperneck -0.330917 16.7372 -6.42319
head -0.201495 8.4675 -3.36754
rclavicle 9.0447e-015 -8.34896e-015
rhumerus -49.861 -0.896208 -87.1623
rradius 57.9719
rwrist -19.1811
rhand -17.1291 -54.3982
rfingers 7.12502
rthumb 9.11074 -84.1814
lclavicle 9.0447e-015 -8.34896e-015
lhumerus -53.2645 -0.625874 88.5698
lradius 70.0173
lwrist 29.8243
lhand -39.7172 17.0727
lfingers 7.12502
lthumb -12.6952 46.6669
rfemur 0.150191 9.46335 20.3571
rtibia 2.62442
rfoot -10.2367 -15.0439
rtoes 24.0415
lfemur -7.67254 -11.9251 -15.4873
ltibia 16.4495
lfoot -4.59942 27.9064
ltoes 11.7648
989
root 7.26877 16.4224 -1.6823 208.244 -82.2113 -201.865
lowerback -7.46927 0.701033 -3.98294
upperback -5.73815 0.938213 0.235051
thorax -1.83096 0.505491 2.53222
lowerneck 7.11322 12.3003 6.21969
upperneck -0.284724 16.7625 -6.31553
head -0.168109 8.47577 -3.2934
rclavicle 2.16178e-014 -5.36719e-015
rhumerus -49.7336 -1.07904 -87.0581
rradius 57.5595
rwrist -18.8873
rhand -17.1998 -55.2423
rfingers 7.12502
rthumb 9.04259 -85.0285
lclavicle 2.16178e-014 -5.36719e-015
lhumerus -53.0891 -0.600713 88.567
lradius 69.443
lwrist 29.3292
lhand -38.8145 18.592
lfingers 7.12502
lthumb -11.8247 48.2382
rfemur 0.323907 9.35107 20.3337
rtibia 2.0024
rfoot -9.70829 -15.1387
rtoes 22.7714
lfemur -7.84611 -11.8604 -15.4685
ltibia 16.4888
lfoot -4.45346 27.7441
ltoes 11.2624
990
root 7.27068 16.4216 -1.67749 208.397 -82.3032 -201.951
lowerback -7.50096 0.724436 -3.9329
upperback -5.7427 0.967757 0.246968
thorax -1.81932 0.518734 2.51851
lowerneck 7.02359 12.2974 6.18345
upperneck -0.259019 16.753 -6.30468
head -0.149351 8.46979 -3.2757
rclavicle -8.00108e-015 1.13307e-014
rhumerus -49.7069 -1.22557 -86.9071
rradius 57.0625
rwrist -18.7611
rhand -16.7947 -55.5286
rfingers 7.12502
rthumb 9.43345 -85.2975
lclavicle -8.00108e-015 1.13307e-014
lhumerus -53.0205 -0.514441 88.5843
lradius 68.898
lwrist 28.8451
lhand -38.3349 19.0483
lfingers 7.12502
lthumb -11.3623 48.7205
rfemur 0.774748 9.23545 20.325
rtibia 0.85094
rfoot -8.85533 -15.2151
rtoes 21.3195
lfemur -8.00209 -11.9571 -15.4249
ltibia 16.5495
lfoot -4.53976 27.7837
ltoes 11.4601
